<svg height="511pt" viewBox="-13 1 511 511.999" width="511pt" xmlns="http://www.w3.org/2000/svg"><path d="m67.035156 36.542969h38.519532v56.644531h-38.519532zm0 0" fill="#e1d3ce"/><path d="m86.292969 36.542969h19.261719v56.644531h-19.261719zm0 0" fill="#cdbfba"/><path d="m223.832031 36.542969h38.519531v56.644531h-38.519531zm0 0" fill="#e1d3ce"/><path d="m243.089844 36.542969h19.261718v56.644531h-19.261718zm0 0" fill="#cdbfba"/><path d="m380.628906 36.542969h38.515625v56.644531h-38.515625zm0 0" fill="#e1d3ce"/><path d="m399.886719 36.542969h19.257812v56.644531h-19.257812zm0 0" fill="#cdbfba"/><path d="m196.320312 392.003906h93.542969v119.996094h-93.542969zm0 0" fill="#e1d3ce"/><path d="m267.464844 392.003906h22.398437v119.996094h-22.398437zm0 0" fill="#cdbfba"/><path d="m295.886719 440.652344h-105.59375c-9.765625 0-17.679688-7.917969-17.679688-17.683594v-39.71875h140.957031v39.71875c0 9.765625-7.917968 17.683594-17.683593 17.683594zm0 0" fill="#7c8388"/><path d="m313.570312 392.003906v30.960938c0 9.765625-7.917968 17.6875-17.683593 17.6875h-24.011719c9.765625 0 17.683594-7.917969 17.683594-17.6875v-30.960938zm0 0" fill="#6a7075"/><path d="m451.695312 392.003906h-417.207031c-18.769531 0-33.988281-15.214844-33.988281-33.988281v-239.644531c0-18.769532 15.21875-33.988282 33.988281-33.988282h417.207031c18.769532 0 33.988282 15.21875 33.988282 33.988282v239.644531c0 18.773437-15.21875 33.988281-33.988282 33.988281zm0 0" fill="#87c080"/><path d="m485.679688 118.375v239.644531c0 18.769531-15.21875 33.988281-33.988282 33.988281h-23.019531c18.765625 0 33.984375-15.21875 33.984375-33.988281v-239.644531c0-18.777344-15.21875-33.996094-33.984375-33.996094h23.019531c18.769532 0 33.988282 15.21875 33.988282 33.996094zm0 0" fill="#70b568"/><path d="m432.464844 355.214844h-378.75c-8.636719 0-15.636719-7-15.636719-15.636719v-202.765625c0-8.636719 7-15.640625 15.636719-15.640625h378.75c8.636718 0 15.640625 7.003906 15.640625 15.640625v202.765625c0 8.636719-7 15.636719-15.640625 15.636719zm0 0" fill="#ffb541"/><path d="m448.097656 136.8125v202.769531c0 8.628907-6.996094 15.628907-15.628906 15.628907h-23.625c8.640625 0 15.640625-7 15.640625-15.628907v-202.769531c0-8.640625-7-15.636719-15.640625-15.636719h23.625c8.632812-.003906 15.628906 6.996094 15.628906 15.636719zm0 0" fill="#ffa812"/><path d="m129.242188 45.867188h-85.894532c-6.300781 0-11.40625-5.105469-11.40625-11.40625v-23.058594c0-6.296875 5.105469-11.402344 11.40625-11.402344h85.894532c6.296874 0 11.40625 5.105469 11.40625 11.402344v23.0625c-.003907 6.296875-5.109376 11.402344-11.40625 11.402344zm0 0" fill="#7c8388"/><path d="m140.644531 11.402344v23.0625c0 6.296875-5.101562 11.394531-11.398437 11.394531h-19.265625c6.296875 0 11.410156-5.097656 11.410156-11.394531v-23.0625c0-6.300782-5.113281-11.39843775-11.410156-11.39843775h19.265625c6.296875 0 11.398437 5.09765575 11.398437 11.39843775zm0 0" fill="#6a7075"/><path d="m286.039062 45.867188h-85.894531c-6.300781 0-11.40625-5.105469-11.40625-11.40625v-23.058594c0-6.296875 5.105469-11.402344 11.40625-11.402344h85.894531c6.296876 0 11.402344 5.105469 11.402344 11.402344v23.0625c0 6.296875-5.105468 11.402344-11.402344 11.402344zm0 0" fill="#7c8388"/><path d="m297.441406 11.402344v23.0625c0 6.296875-5.101562 11.394531-11.398437 11.394531h-19.261719c6.296875 0 11.40625-5.097656 11.40625-11.394531v-23.0625c0-6.300782-5.109375-11.39843775-11.40625-11.39843775h19.261719c6.296875 0 11.398437 5.09765575 11.398437 11.39843775zm0 0" fill="#6a7075"/><path d="m442.835938 45.867188h-85.898438c-6.296875 0-11.402344-5.105469-11.402344-11.40625v-23.058594c0-6.296875 5.105469-11.402344 11.402344-11.402344h85.898438c6.296874 0 11.402343 5.105469 11.402343 11.402344v23.0625c0 6.296875-5.105469 11.402344-11.402343 11.402344zm0 0" fill="#7c8388"/><path d="m454.238281 11.402344v23.0625c0 6.296875-5.101562 11.394531-11.398437 11.394531h-19.265625c6.300781 0 11.410156-5.097656 11.410156-11.394531v-23.0625c0-6.300782-5.109375-11.39843775-11.410156-11.39843775h19.265625c6.296875 0 11.398437 5.09765575 11.398437 11.39843775zm0 0" fill="#6a7075"/><g fill="#ea4444"><path d="m114.050781 281.273438c0-.476563 0-.953126.15625-1.433594l31.722657-103.296875c1.277343-3.824219 5.898437-5.738281 10.679687-5.738281 4.785156 0 9.566406 1.914062 10.839844 5.738281l31.5625 103.296875c.160156.480468.320312.957031.320312 1.433594 0 3.988281-5.898437 7.015624-10.679687 7.015624-2.710938 0-4.941406-.957031-5.738282-3.507812l-6.535156-22.636719h-39.375l-6.535156 22.636719c-.796875 2.550781-3.027344 3.507812-5.898438 3.507812-4.621093 0-10.519531-2.867187-10.519531-7.015624zm58.5-32.675782-15.941406-54.675781-15.941406 54.675781zm0 0"/><path d="m247.632812 171.761719c20.246094 0 35.867188 9.726562 35.867188 35.550781v45.429688c0 25.824218-15.621094 35.546874-35.867188 35.546874h-28.214843c-4.460938 0-7.492188-2.550781-7.492188-5.417968v-105.6875c0-2.871094 3.03125-5.421875 7.492188-5.421875zm-18.808593 14.984375v86.558594h18.808593c11.957032 0 18.96875-6.535157 18.96875-20.5625v-45.429688c0-14.027344-7.011718-20.566406-18.96875-20.566406zm0 0"/><path d="m352.046875 257.363281c0-28.214843-51.808594-17.214843-51.808594-55.472656 0-23.59375 19.769531-30.605469 36.824219-30.605469 10.363281 0 29.011719 2.710938 29.011719 11.476563 0 3.1875-2.230469 9.085937-7.011719 9.085937-4.304688 0-8.449219-6.058594-22-6.058594-11.636719 0-19.925781 4.464844-19.925781 14.507813 0 23.59375 51.808593 12.910156 51.808593 55.3125 0 22.796875-15.304687 33.953125-36.34375 33.953125-20.726562 0-35.230468-10.835938-35.230468-18.808594 0-3.824218 3.347656-9.085937 7.332031-9.085937 5.738281 0 9.566406 12.59375 27.257813 12.59375 11.476562 0 20.085937-5.417969 20.085937-16.898438zm0 0"/></g></svg>