<svg height="512pt" viewBox="-31 0 512 512.00027" width="512pt" xmlns="http://www.w3.org/2000/svg"><path d="m375.464844 419.988281h-340.464844c-19.300781 0-35-15.703125-35-35v-349.988281c0-19.300781 15.699219-35 35-35h320.464844c19.296875 0 35 15.699219 35 35v369.988281c0 8.28125-6.714844 15-15 15zm0 0" fill="#e8efff"/><path d="m355.464844 0h-160.230469v419.988281h180.230469c8.28125 0 15-6.722656 15-15v-369.988281c0-19.300781-15.699219-35-35-35zm0 0" fill="#ccdfff"/><path d="m165.464844 149.996094h-90c-8.285156 0-15-6.71875-15-15v-60c0-8.28125 6.714844-15 15-15h90c8.285156 0 15 6.71875 15 15v60c0 8.285156-6.714844 15-15 15zm0 0" fill="#ff8533"/><path d="m315.464844 89.996094h-90c-8.285156 0-15-6.714844-15-15 0-8.28125 6.714844-15 15-15h90c8.28125 0 15 6.71875 15 15 0 8.285156-6.714844 15-15 15zm0 0" fill="#0097f1"/><path d="m315.464844 149.996094h-90c-8.285156 0-15-6.71875-15-15 0-8.285156 6.714844-15 15-15h90c8.28125 0 15 6.714844 15 15 0 8.28125-6.714844 15-15 15zm0 0" fill="#0097f1"/><path d="m315.464844 209.992188h-240c-8.285156 0-15-6.714844-15-15 0-8.28125 6.714844-15 15-15h240c8.28125 0 15 6.71875 15 15 0 8.285156-6.714844 15-15 15zm0 0" fill="#40b4f9"/><path d="m330.464844 194.992188c0 8.28125-6.71875 15-15 15h-120.230469v-29.996094h120.230469c8.28125 0 15 6.71875 15 14.996094zm0 0" fill="#0097f1"/><path d="m135.464844 269.992188h-60c-8.285156 0-15-6.714844-15-15 0-8.285157 6.714844-15 15-15h60c8.285156 0 15 6.714843 15 15 0 8.285156-6.714844 15-15 15zm0 0" fill="#40b4f9"/><path d="m135.464844 329.988281h-60c-8.285156 0-15-6.714843-15-15 0-8.28125 6.714844-15 15-15h60c8.285156 0 15 6.71875 15 15 0 8.285157-6.714844 15-15 15zm0 0" fill="#40b4f9"/><path d="m240.230469 496.984375v-47h-35c-13.785157 0-25-11.214844-25-25v-159.992187c0-13.785157 11.214843-25 25-25h220c13.785156 0 25 11.214843 25 25v159.996093c0 13.785157-11.214844 24.996094-25 24.996094h-106.433594l-52.519531 57.152344c-9.21875 10.03125-26.046875 3.519531-26.046875-10.152344zm0 0" fill="#ffc543"/><path d="m425.234375 239.992188h-106.4375v209.992187h106.4375c13.78125 0 25-11.21875 25-24.996094v-159.996093c0-13.789063-11.21875-25-25-25zm0 0" fill="#f90"/><path d="m342.464844 383.988281h-87c-8.285156 0-15-6.714843-15-15 0-8.285156 6.714844-15 15-15h87c8.28125 0 15 6.714844 15 15 0 8.285157-6.714844 15-15 15zm0 0" fill="#ff8533"/><path d="m357.464844 368.988281c0 8.28125-6.71875 15-15 15h-23.667969v-30h23.667969c8.28125 0 15 6.722657 15 15zm0 0" fill="#ff6700"/><path d="m375.464844 323.988281h-120c-8.285156 0-15-6.714843-15-15 0-8.28125 6.714844-15 15-15h120c8.28125 0 15 6.71875 15 15 0 8.285157-6.714844 15-15 15zm0 0" fill="#ff8533"/><path d="m390.464844 308.992188c0 8.277343-6.71875 15-15 15h-56.667969v-30h56.667969c8.28125 0 15 6.71875 15 15zm0 0" fill="#ff6700"/></svg>